<svg width="87" height="117" viewBox="0 0 87 117" fill="none" xmlns="http://www.w3.org/2000/svg">
<path d="M43.3833 0.980469C19.41 0.980469 0 20.6966 0 44.9553V74.2074C0 85.5474 4.24193 95.8887 11.1511 103.685C11.9545 98.6271 14.6861 86.1917 22.9771 79.0076C28.5366 74.2074 32.7785 67.7642 27.0905 51.9461C26.4478 50.1743 26.4478 48.2413 27.0905 46.4694C32.7143 36.7724 42.0979 40.445 43.5119 38.7698C44.9259 37.0946 49.1035 28.1708 49.1035 28.1708C49.6498 27.2365 50.0355 26.27 50.3247 25.3035C51.2887 21.9531 50.7103 18.3449 48.9428 15.3488C48.8786 15.2521 48.9428 15.1555 49.0714 15.1555L56.4626 16.122C59.9011 16.573 62.9862 18.6348 64.5608 21.792C64.9786 22.6296 65.3 23.5639 65.4606 24.5626C65.6213 25.6257 65.9105 26.6888 66.1998 27.7519C66.5533 28.9762 66.8103 29.9749 67.1317 31.1024C67.1317 31.1024 68.6421 35.9026 74.2016 40.0907V40.1229C73.8802 40.2195 71.9521 40.9927 69.9275 43.0868V43.119C70.4417 42.8612 72.9162 41.8625 75.8726 42.7324C75.8726 42.7324 75.8726 44.5687 72.0806 48.338C69.1241 51.2696 68.9956 55.0067 68.9956 56.0376C68.9956 59.3558 70.4096 61.772 71.0523 62.7063L74.2337 67.2165C74.78 68.0219 74.7158 69.0851 74.0409 69.7938C72.8197 71.0824 71.4058 72.5644 70.3131 73.7242C70.1203 73.9497 69.9918 74.2074 69.9918 74.4973V77.3001C69.9918 77.9122 69.4776 78.3955 68.8992 78.3633C68.61 78.3633 68.385 78.2988 68.1922 78.2022C67.6459 77.9767 67.0674 77.8478 66.489 77.88C66.007 77.88 65.4606 77.9767 64.9143 78.1377C63.3718 78.5888 62.4399 79.4586 61.8293 79.9096C60.6403 80.8439 58.7764 81.9392 55.6592 82.4869C55.6592 82.4869 55.6592 82.4869 55.6592 82.5191C56.1413 82.7446 60.0618 84.3232 67.903 83.4856C68.7706 83.3889 69.5419 84.0977 69.5419 84.9675C69.5419 85.483 69.4776 86.0951 69.3491 86.8038C69.1563 87.8992 68.3529 88.769 67.2924 89.0267C65.782 89.4133 63.3397 89.6066 60.1582 88.1891H60.094L59.9011 91.4429C59.9011 91.4429 59.9011 91.4752 59.9333 91.4752H63.661C65.3321 91.4752 66.8103 92.6671 67.0674 94.3102C67.0674 94.4068 67.0674 94.5035 67.0996 94.6323C67.2281 96.4042 66.0712 98.1761 64.2073 98.8848C54.1488 105.135 41.7766 94.2457 40.0734 92.6671C40.0412 92.6349 39.9769 92.6671 40.0091 92.7316C45.3436 102.235 53.7311 107.938 53.7311 107.938V116.765C72.6912 112.061 86.7667 94.729 86.7667 74.0463V44.7942C86.7667 20.6966 67.3567 0.980469 43.3833 0.980469Z" fill="white"/>
<path d="M59.3873 44.0211C59.6443 44.0855 59.9014 43.9567 59.9014 43.6989V42.7647C59.9014 42.7647 59.805 42.4747 59.6443 42.4103C48.3325 38.7055 39.1738 49.5622 39.1738 49.5622C49.9393 41.2827 57.2342 43.6345 59.3873 44.0211Z" fill="white"/>
<path d="M57.0413 51.3991C56.7842 51.7857 56.977 52.6233 55.9165 53.0743C53.7313 54.0086 50.3892 53.9764 45.0546 54.3307C43.4478 54.4274 41.2305 54.3307 41.2305 54.3307C41.2305 54.3307 49.3608 55.716 57.202 54.2341C57.4269 54.2019 57.5555 53.9764 57.5233 53.7509L57.202 51.3991C57.202 51.3991 57.1056 51.3024 57.0413 51.3669V51.3991Z" fill="white"/>
</svg>
